<svg width="109" height="34" viewBox="0 0 109 34" fill="none" xmlns="http://www.w3.org/2000/svg">
<path fill-rule="evenodd" clip-rule="evenodd" d="M15.7232 0.236821C15.5368 0.107175 15.307 0.328271 15.432 0.517081C17.5188 3.6701 24.4557 14.161 25.414 15.7358C25.5571 15.971 25.7212 16.2299 25.8972 16.5074L25.8973 16.5075C26.8832 18.0626 28.2416 20.2051 28.3732 22.0792C28.3887 22.2996 28.6956 22.3444 28.7728 22.1371C28.8973 21.8027 29.0299 21.4036 29.1534 20.9476C30.7131 15.1921 28.448 9.08469 23.5286 5.66409L15.7232 0.236821ZM14.4398 0.510412L5.09705 15.7815C5.02377 15.9013 4.85354 15.9146 4.76265 15.8074C3.94016 14.8373 0.875927 10.71 4.6676 6.94822C8.12752 3.5156 12.5345 1.06822 14.1678 0.222348C14.3531 0.12638 14.5483 0.333147 14.4398 0.510412ZM13.9176 33.7631C14.1041 33.8927 14.3338 33.6716 14.2088 33.4828C12.122 30.3298 5.18511 19.8389 4.22686 18.2641C4.0837 18.0288 3.91957 17.77 3.74357 17.4924C2.75763 15.9373 1.39923 13.7948 1.26764 11.9207C1.25216 11.7003 0.945249 11.6555 0.868044 11.8628C0.743531 12.1972 0.610968 12.5964 0.487421 13.0523C-1.07226 18.8078 1.19287 24.9152 6.11227 28.3358L13.9176 33.7631ZM24.5446 18.2168L15.2018 33.4879C15.0933 33.6651 15.2886 33.8719 15.4739 33.776C17.1071 32.9301 21.5141 30.4827 24.974 27.0501C28.7657 23.2883 25.7014 19.161 24.879 18.1909C24.7881 18.0837 24.6178 18.097 24.5446 18.2168ZM57.4195 7.43088C59.7832 9.8224 60.9739 13.4572 61.0741 18.0603C61.0778 18.2295 60.9432 18.3698 60.7732 18.3751L43.5852 18.9157C43.4113 18.9211 43.275 19.0678 43.2869 19.2405C43.5535 23.0952 45.5551 25.0086 49.1092 24.8968C52.1083 24.8025 53.622 23.4515 54.093 21.0897C54.1242 20.9332 54.2644 20.8198 54.4244 20.8288L60.4107 21.1651C60.6036 21.1759 60.7404 21.3577 60.693 21.544C59.3625 26.7768 55.4002 29.4969 49.2615 29.6899C45.4659 29.8093 42.4105 28.6938 40.3036 26.7731C37.8956 24.571 36.6262 21.4123 36.497 17.3454C36.374 13.4722 37.3399 10.1463 39.652 7.79582C41.727 5.64663 44.6113 4.44125 48.4068 4.32188C52.2511 4.20098 55.3065 5.31647 57.4195 7.43088ZM48.556 9.01816C46.5609 9.0809 45.1682 9.70627 44.2821 10.9457C43.6867 11.7592 43.34 12.7659 43.204 13.9304C43.1825 14.1145 43.333 14.2711 43.5191 14.2652L53.6776 13.9458C53.862 13.94 54.0017 13.7771 53.9729 13.5958C53.7595 12.2499 53.3294 11.1238 52.4935 10.2998C51.5382 9.36054 50.3078 8.96306 48.556 9.01816ZM87.0735 22.1016C87.7043 27.4564 92.4543 29.6982 98.1431 29.6982C103.839 29.6982 109 27.8575 109 22.0447C109 16.3254 103.68 15.1363 99.3644 14.1718L99.2629 14.1491C96.0009 13.4225 94.2483 12.8413 94.2483 11.1943C94.2483 9.49894 95.9036 8.77235 97.8997 8.77235C100.227 8.77235 101.798 9.87927 102.059 12.3471C102.079 12.532 102.248 12.6685 102.432 12.6373L108.076 11.6797C108.239 11.652 108.353 11.4996 108.329 11.3363C107.569 6.04437 103.062 4.31593 97.8023 4.31593C92.5443 4.31593 87.8218 6.39882 87.8218 11.7272C87.8218 16.7164 92.1061 18.1696 96.7799 19.2837C100.626 20.204 102.476 20.7853 102.476 22.3838C102.476 24.1761 101.064 25.1933 98.2892 25.1933C95.672 25.1933 93.7727 23.9882 93.5385 21.3208C93.5225 21.1383 93.3601 20.9991 93.1775 21.0224L87.3405 21.7647C87.1742 21.7858 87.0539 21.9359 87.0735 22.1016ZM85.4521 14.3242C85.4521 11.1756 85.2086 8.5599 83.2612 6.62232C81.7033 5.07226 79.9019 4.34567 76.786 4.34567C73.8462 4.34567 71.2425 5.34895 69.8727 7.93804C69.803 8.06982 69.5806 8.02274 69.5806 7.87382V5.23785C69.5806 5.06614 69.4407 4.92694 69.2681 4.92694H63.1258C62.9532 4.92694 62.8133 5.06614 62.8133 5.23785V29.1757C62.8133 29.3475 62.9532 29.4867 63.1258 29.4867H69.3168C69.4894 29.4867 69.6293 29.3475 69.6293 29.1757V15.9227C69.6293 10.9334 72.0635 9.52868 74.157 9.52868C75.6176 9.52868 76.4452 9.674 77.3216 10.4975C78.3927 11.5147 78.5874 12.6772 78.5874 14.9055V29.1757C78.5874 29.3475 78.7273 29.4867 78.8999 29.4867H85.1396C85.3121 29.4867 85.4521 29.3475 85.4521 29.1757V14.3242Z" fill="#0080BC"/>
</svg>
